<svg width="421" height="184" viewBox="0 0 421 184" fill="none" xmlns="http://www.w3.org/2000/svg">
<path d="M50.5 46.25V85.15H56.5V68.8C56.5 68.8 58.8 74.7 66.45 74.7C74.75 74.7 80.35 68.6 80.35 60.1C80.35 51.6 74.75 45.55 66.45 45.55C57.65 45.55 55.8 52.85 55.8 52.85L53.9 46.25H50.5ZM64.55 50C70.45 50 73.95 54.1 73.95 60.1C73.95 66.1 70.45 70.25 64.55 70.25C58.55 70.25 55.25 65.6 55.25 60.1C55.25 54.6 58.55 50 64.55 50ZM87.8535 39.95H93.8535V35.15H87.8535V39.95ZM87.8535 74H93.8535V46.25H87.8535V74ZM100.344 74H126.844V70.25H107.594L126.844 50.5V46.25H100.344V50H119.844L100.344 69.75V74ZM130.861 74H157.361V70.25H138.111L157.361 50.5V46.25H130.861V50H150.361L130.861 69.75V74ZM187.629 67.35L187.929 55.7C188.079 50 184.029 45.55 175.729 45.55C164.579 45.55 161.879 53.8 161.879 53.8L168.079 55.6C168.079 55.6 169.429 50 175.929 50C182.379 50 181.879 55.8 181.879 55.8C166.979 57.5 162.879 63.95 162.879 68.6C162.879 72.05 165.479 74.7 169.579 74.7C177.879 74.7 181.879 63.5 181.879 63.5V68.25C181.879 73.15 184.979 74.7 188.079 74.7C192.729 74.7 194.579 72.2 194.579 72.2L193.379 67.75C193.379 67.75 192.279 70.25 189.829 70.25C188.229 70.25 187.579 69.1 187.629 67.35ZM169.229 67.35C169.229 64.9 170.729 60.35 181.879 57.5V59.25C181.979 61.35 177.179 70.25 171.879 70.25C170.229 70.25 169.229 69.25 169.229 67.35ZM226.764 57.55C226.764 55.95 228.414 50 232.264 50C233.914 50 234.714 51.25 234.714 53.65C234.714 56.85 233.664 60.05 233.664 60.05L239.864 58.25C239.864 58.25 240.864 55.9 240.864 52.35C240.864 48.7 239.414 45.55 234.814 45.55C227.164 45.55 226.214 54.5 226.214 54.5L223.664 46.25H220.764V74H226.764V57.55ZM325.65 74H331.65V56.8C331.65 49.8 329.25 45.55 321.5 45.55C313.75 45.55 311.25 50.8 310.5 53.25C309.7 48.4 306.9 45.55 300.6 45.55C290.5 45.55 289.3 54.5 289.3 54.5L286.75 46.25H283.85V74H289.85V57.5C289.85 55.8 290.85 50 297.9 50C302.25 50 304.6 52.15 304.75 56.55V74H310.75V57.5C310.75 55.8 311.75 50 318.8 50C323.3 50 325.65 52.25 325.65 56.9V74ZM364.387 67.35L364.687 55.7C364.837 50 360.787 45.55 352.487 45.55C341.337 45.55 338.637 53.8 338.637 53.8L344.837 55.6C344.837 55.6 346.187 50 352.687 50C359.137 50 358.637 55.8 358.637 55.8C343.737 57.5 339.637 63.95 339.637 68.6C339.637 72.05 342.237 74.7 346.337 74.7C354.637 74.7 358.637 63.5 358.637 63.5V68.25C358.637 73.15 361.737 74.7 364.837 74.7C369.487 74.7 371.337 72.2 371.337 72.2L370.137 67.75C370.137 67.75 369.037 70.25 366.587 70.25C364.987 70.25 364.337 69.1 364.387 67.35ZM345.987 67.35C345.987 64.9 347.487 60.35 358.637 57.5V59.25C358.737 61.35 353.937 70.25 348.637 70.25C346.987 70.25 345.987 69.25 345.987 67.35Z" fill="white"/>
<path d="M244.85 60.1C244.85 68.3 250.7 74.7 260.6 74.7C270.5 74.7 276.35 68.3 276.35 60.1C276.35 51.95 270.5 45.55 260.6 45.55C250.7 45.55 244.85 51.95 244.85 60.1ZM251.25 60.1C251.25 54.1 254.8 50 260.6 50C266.3 50 269.95 54.1 269.95 60.1C269.95 66.1 266.3 70.25 260.6 70.25C254.8 70.25 251.25 66.1 251.25 60.1Z" fill="#EE7D14"/>
<line x1="33" y1="113" x2="388" y2="113" stroke="#EE7D14" stroke-width="2"/>
<rect x="14" y="14" width="406" height="126" rx="9" stroke="#65B163" stroke-width="2"/>
<rect x="1" y="1" width="406" height="126" rx="9" stroke="#E0BB35" stroke-width="2"/>
<circle cx="205" cy="139" r="44" fill="#191A20" stroke="#EE7D14" stroke-width="2"/>
<circle cx="205" cy="139" r="38" fill="#191A20" stroke="#EE7D14" stroke-width="2"/>
<circle cx="182.875" cy="138.625" r="3.875" stroke="#EE7D14" stroke-width="2"/>
<circle cx="194.875" cy="118.375" r="6.125" stroke="#EE7D14" stroke-width="2"/>
<circle cx="228.125" cy="137.125" r="6.125" stroke="#EE7D14" stroke-width="2"/>
<circle cx="215.125" cy="158.875" r="6.125" stroke="#EE7D14" stroke-width="2"/>
<circle cx="217.375" cy="115.375" r="3.125" stroke="#EE7D14" stroke-width="2"/>
<circle cx="191.875" cy="157.375" r="3.125" stroke="#EE7D14" stroke-width="2"/>
<circle cx="206.125" cy="135.125" r="3.125" stroke="#EE7D14" stroke-width="2"/>
</svg>
